<?xml version="1.0" encoding="utf-8"?>
<svg width="18px" height="18px" viewBox="0 0 18 18" version="1.1" xmlns:xlink="http://www.w3.org/1999/xlink" xmlns="http://www.w3.org/2000/svg">
  <desc>Created with Lunacy</desc>
  <defs>
    <rect width="18" height="18" id="artboard_1" />
    <clipPath id="clip_1">
      <use xlink:href="#artboard_1" clip-rule="evenodd" />
    </clipPath>
  </defs>
  <g id="Artboard" clip-path="url(#clip_1)">
    <use xlink:href="#artboard_1" stroke="none" fill="#FFFFFF" fill-opacity="0" />
    <path d="M0.799 0L9.201 0Q9.27969 0 9.35688 0.0153526Q9.43406 0.0307051 9.50676 0.0608202Q9.57947 0.0909354 9.6449 0.134656Q9.71033 0.178376 9.76598 0.234022Q9.82162 0.289667 9.86534 0.355099Q9.90906 0.420532 9.93918 0.493236Q9.96929 0.56594 9.98465 0.643123Q10 0.720305 10 0.799L10 7.201Q10 7.27969 9.98465 7.35688Q9.96929 7.43406 9.93918 7.50676Q9.90906 7.57947 9.86534 7.6449Q9.82162 7.71033 9.76598 7.76598Q9.71033 7.82162 9.6449 7.86534Q9.57947 7.90906 9.50676 7.93918Q9.43406 7.96929 9.35688 7.98465Q9.27969 8 9.201 8L0.799 8Q0.720305 8 0.643123 7.98465Q0.56594 7.96929 0.493236 7.93918Q0.420532 7.90906 0.355099 7.86534Q0.289667 7.82162 0.234022 7.76598Q0.178376 7.71033 0.134656 7.6449Q0.0909354 7.57947 0.0608202 7.50676Q0.0307051 7.43406 0.0153526 7.35688Q0 7.27969 0 7.201L0 0.799Q0 0.720305 0.0153526 0.643123Q0.0307051 0.56594 0.0608202 0.493236Q0.0909354 0.420532 0.134656 0.355099Q0.178376 0.289667 0.234022 0.234022Q0.289667 0.178376 0.355099 0.134656Q0.420532 0.0909354 0.493236 0.0608202Q0.56594 0.0307051 0.643123 0.0153526Q0.720305 0 0.799 0Z" transform="translate(4 7)" id="Rectangle" fill="#000000" stroke="none" />
    <path d="M0.000192512 5C-0.0392654 -1.64465 6.00001 -1.68865 6 5" transform="translate(6.000061 3)" id="New-shape-2" fill="none" stroke="#000000" stroke-width="1.5" />
  </g>
</svg>